<svg width="20" height="19" viewBox="0 0 20 19" fill="none" xmlns="http://www.w3.org/2000/svg">
<path fill-rule="evenodd" clip-rule="evenodd" d="M2.90533 1.90533C2.63559 2.17507 2.5 2.49392 2.5 2.75V17.75C2.5 18.1642 2.16421 18.5 1.75 18.5C1.33579 18.5 1 18.1642 1 17.75V2.75C1 2.00608 1.36441 1.32493 1.84467 0.84467C2.32493 0.36441 3.00608 0 3.75 0H8.75C9.49392 0 10.1751 0.36441 10.6553 0.84467C11.1356 1.32493 11.5 2.00608 11.5 2.75V17.75C11.5 18.1642 11.1642 18.5 10.75 18.5C10.3358 18.5 10 18.1642 10 17.75V2.75C10 2.49392 9.86441 2.17507 9.59467 1.90533C9.32493 1.63559 9.00608 1.5 8.75 1.5H3.75C3.49392 1.5 3.17507 1.63559 2.90533 1.90533Z" fill="#B2B2B2"/>
<path fill-rule="evenodd" clip-rule="evenodd" d="M13 4.75C13 4.33579 13.3358 4 13.75 4H15.75C16.4939 4 17.1751 4.36441 17.6553 4.84467C18.1356 5.32493 18.5 6.00608 18.5 6.75V17.75C18.5 18.1642 18.1642 18.5 17.75 18.5C17.3358 18.5 17 18.1642 17 17.75V6.75C17 6.49392 16.8644 6.17507 16.5947 5.90533C16.3249 5.63559 16.0061 5.5 15.75 5.5H13.75C13.3358 5.5 13 5.16421 13 4.75Z" fill="#B2B2B2"/>
<path fill-rule="evenodd" clip-rule="evenodd" d="M0 17.75C0 17.3358 0.335786 17 0.75 17H18.75C19.1642 17 19.5 17.3358 19.5 17.75C19.5 18.1642 19.1642 18.5 18.75 18.5H0.75C0.335786 18.5 0 18.1642 0 17.75Z" fill="#B2B2B2"/>
<path d="M8.75 4.75C8.75 5.30228 8.30229 5.75 7.75 5.75C7.19772 5.75 6.75 5.30228 6.75 4.75C6.75 4.19772 7.19772 3.75 7.75 3.75C8.30229 3.75 8.75 4.19772 8.75 4.75Z" fill="#B2B2B2"/>
<path d="M8.75 8.75C8.75 9.30229 8.30229 9.75 7.75 9.75C7.19772 9.75 6.75 9.30229 6.75 8.75C6.75 8.19771 7.19772 7.75 7.75 7.75C8.30229 7.75 8.75 8.19771 8.75 8.75Z" fill="#B2B2B2"/>
<path d="M8.75 12.75C8.75 13.3023 8.30229 13.75 7.75 13.75C7.19772 13.75 6.75 13.3023 6.75 12.75C6.75 12.1977 7.19772 11.75 7.75 11.75C8.30229 11.75 8.75 12.1977 8.75 12.75Z" fill="#B2B2B2"/>
<path d="M14.75 8.75C14.75 9.30229 14.3023 9.75 13.75 9.75C13.1977 9.75 12.75 9.30229 12.75 8.75C12.75 8.19771 13.1977 7.75 13.75 7.75C14.3023 7.75 14.75 8.19771 14.75 8.75Z" fill="#B2B2B2"/>
<path d="M14.75 12.75C14.75 13.3023 14.3023 13.75 13.75 13.75C13.1977 13.75 12.75 13.3023 12.75 12.75C12.75 12.1977 13.1977 11.75 13.75 11.75C14.3023 11.75 14.75 12.1977 14.75 12.75Z" fill="#B2B2B2"/>
<path d="M5.75 4.75C5.75 5.30228 5.30228 5.75 4.75 5.75C4.19772 5.75 3.75 5.30228 3.75 4.75C3.75 4.19772 4.19772 3.75 4.75 3.75C5.30228 3.75 5.75 4.19772 5.75 4.75Z" fill="#B2B2B2"/>
<path d="M5.75 8.75C5.75 9.30229 5.30228 9.75 4.75 9.75C4.19772 9.75 3.75 9.30229 3.75 8.75C3.75 8.19771 4.19772 7.75 4.75 7.75C5.30228 7.75 5.75 8.19771 5.75 8.75Z" fill="#B2B2B2"/>
<path d="M5.75 12.75C5.75 13.3023 5.30228 13.75 4.75 13.75C4.19772 13.75 3.75 13.3023 3.75 12.75C3.75 12.1977 4.19772 11.75 4.75 11.75C5.30228 11.75 5.75 12.1977 5.75 12.75Z" fill="#B2B2B2"/>
</svg>
